<?xml version="1.0" standalone="no"?>
<!DOCTYPE svg PUBLIC "-//W3C//DTD SVG 20010904//EN"
 "http://www.w3.org/TR/2001/REC-SVG-20010904/DTD/svg10.dtd">
<svg version="1.0" xmlns="http://www.w3.org/2000/svg"
 width="256.000000pt" height="256.000000pt" viewBox="0 0 256.000000 256.000000"
 preserveAspectRatio="xMidYMid meet">
<metadata>
Created by potrace 1.11, written by Peter Selinger 2001-2013
</metadata>
<g transform="translate(0.000000,256.000000) scale(0.100000,-0.100000)"
fill="#000000" stroke="none">
<path d="M1078 1729 c-197 -29 -308 -182 -308 -423 1 -185 68 -314 197 -378
60 -29 78 -33 169 -36 84 -4 116 0 172 17 83 25 160 88 196 160 66 131 69 335
7 466 -52 112 -138 173 -271 194 -73 12 -81 12 -162 0z m183 -165 c66 -34 96
-98 106 -224 10 -135 -34 -247 -110 -284 -54 -25 -156 -22 -198 7 -72 48 -99
116 -99 248 0 160 47 243 153 270 40 10 113 2 148 -17z"/>
<path d="M70 1310 l0 -410 168 0 c118 0 185 5 227 15 166 44 258 148 286 324
22 148 -19 289 -111 375 -91 85 -171 106 -405 106 l-165 0 0 -410z m407 228
c113 -75 127 -326 24 -429 -43 -43 -91 -59 -183 -59 l-68 0 0 261 0 261 93 -4
c81 -3 99 -6 134 -30z"/>
<path d="M1610 1310 l0 -410 82 0 81 0 -5 313 -6 312 96 -312 96 -313 82 0 82
0 105 313 104 312 -5 -312 -5 -313 87 0 86 0 0 410 0 411 -122 -3 -122 -3
-101 -310 -101 -310 -17 50 c-9 28 -48 154 -87 280 -39 127 -76 245 -81 263
l-11 32 -119 0 -119 0 0 -410z"/>
</g>
</svg>
